ffmpeg version 4.2.7-0ubuntu0.1 Copyright (c) 2000-2022 the FFmpeg developers
  built with gcc 9 (Ubuntu 9.4.0-1ubuntu1~20.04.1)
  configuration: --prefix=/usr --extra-version=0ubuntu0.1 --toolchain=hardened --libdir=/usr/lib/x86_64-linux-gnu --incdir=/usr/include/x86_64-linux-gnu --arch=amd64 --enable-gpl --disable-stripping --enable-avresample --disable-filter=resample --enable-avisynth --enable-gnutls --enable-ladspa --enable-libaom --enable-libass --enable-libbluray --enable-libbs2b --enable-libcaca --enable-libcdio --enable-libcodec2 --enable-libflite --enable-libfontconfig --enable-libfreetype --enable-libfribidi --enable-libgme --enable-libgsm --enable-libjack --enable-libmp3lame --enable-libmysofa --enable-libopenjpeg --enable-libopenmpt --enable-libopus --enable-libpulse --enable-librsvg --enable-librubberband --enable-libshine --enable-libsnappy --enable-libsoxr --enable-libspeex --enable-libssh --enable-libtheora --enable-libtwolame --enable-libvidstab --enable-libvorbis --enable-libvpx --enable-libwavpack --enable-libwebp --enable-libx265 --enable-libxml2 --enable-libxvid --enable-libzmq --enable-libzvbi --enable-lv2 --enable-omx --enable-openal --enable-opencl --enable-opengl --enable-sdl2 --enable-libdc1394 --enable-libdrm --enable-libiec61883 --enable-nvenc --enable-chromaprint --enable-frei0r --enable-libx264 --enable-shared
  libavutil      56. 31.100 / 56. 31.100
  libavcodec     58. 54.100 / 58. 54.100
  libavformat    58. 29.100 / 58. 29.100
  libavdevice    58.  8.100 / 58.  8.100
  libavfilter     7. 57.100 /  7. 57.100
  libavresample   4.  0.  0 /  4.  0.  0
  libswscale      5.  5.100 /  5.  5.100
  libswresample   3.  5.100 /  3.  5.100
  libpostproc    55.  5.100 / 55.  5.100
Routing option strict to both codec and muxer layer
[h264 @ 0x55894998dac0] Reinit context to 1280x720, pix_fmt: yuv420p
Input #0, mov,mp4,m4a,3gp,3g2,mj2, from '/var/www/html/project/media/video/original/IMG_5494.MOV':
  Metadata:
    major_brand     : qt  
    minor_version   : 0
    compatible_brands: qt  
    creation_time   : 2022-07-05T12:40:52.000000Z
    com.apple.quicktime.artwork: ˙Ř˙ŕ
    com.apple.quicktime.is-montage: iMovie
  Duration: 00:00:27.17, start: 0.000000, bitrate: 9762 kb/s
    Stream #0:0(und): Audio: aac (LC) (mp4a / 0x6134706D), 44100 Hz, stereo, fltp, 182 kb/s (default)
    Metadata:
      creation_time   : 2022-07-05T12:40:52.000000Z
      handler_name    : Core Media Audio
    Stream #0:1(und): Video: h264 (Main), 1 reference frame (avc1 / 0x31637661), yuv420p(tv, bt709, left), 1280x720, 9557 kb/s, 30 fps, 30 tbr, 600 tbn, 1200 tbc (default)
    Metadata:
      creation_time   : 2022-07-05T12:40:52.000000Z
      handler_name    : Core Media Video
      encoder         : H.264
Input #1, png_pipe, from '/var/www/html/project/static/images/templates/logo.png':
  Duration: N/A, bitrate: N/A
    Stream #1:0: Video: png, 1 reference frame, rgba(pc), 1920x1080 [SAR 2835:2835 DAR 16:9], 25 tbr, 25 tbn, 25 tbc
[Parsed_scale_0 @ 0x5589499ef480] w:1280 h:720 flags:'bilinear' interl:0
[Parsed_scale_2 @ 0x5589499d56c0] w:1280 h:720 flags:'bilinear' interl:0
Stream mapping:
  Stream #0:1 (h264) -> scale (graph 0)
  Stream #1:0 (png) -> scale (graph 0)
  overlay (graph 0) -> Stream #0:0 (libx264)
  Stream #0:0 -> #0:1 (aac (native) -> aac (native))
Press [q] to stop, [?] for help
[graph_1_in_0_0 @ 0x5589499e4f40] tb:1/44100 samplefmt:fltp samplerate:44100 chlayout:0x3
[h264 @ 0x5589499decc0] Reinit context to 1280x720, pix_fmt: yuv420p
[Parsed_scale_0 @ 0x55894a3475c0] w:1280 h:720 flags:'bilinear' interl:0
[Parsed_scale_2 @ 0x5589499fc040] w:1280 h:720 flags:'bilinear' interl:0
[graph 0 input from stream 0:1 @ 0x5589499fe1c0] w:1280 h:720 pixfmt:yuv420p tb:1/600 fr:30/1 sar:0/1 sws_param:flags=2
[graph 0 input from stream 1:0 @ 0x55894a2ea280] w:1920 h:1080 pixfmt:rgba tb:1/25 fr:25/1 sar:2835/2835 sws_param:flags=2
[Parsed_scale_0 @ 0x55894a3475c0] w:1280 h:720 fmt:yuv420p sar:0/1 -> w:1280 h:720 fmt:yuv420p sar:0/1 flags:0x2
[Parsed_setsar_1 @ 0x55894a347a40] w:1280 h:720 sar:0/1 dar:16/9 -> sar:1/1 dar:16/9
[Parsed_scale_2 @ 0x5589499fc040] w:1920 h:1080 fmt:rgba sar:2835/2835 -> w:1280 h:720 fmt:yuva420p sar:1/1 flags:0x2
[Parsed_setsar_3 @ 0x5589499fca40] w:1280 h:720 sar:1/1 dar:16/9 -> sar:1/1 dar:16/9
[Parsed_overlay_4 @ 0x5589499fd440] main w:1280 h:720 fmt:yuv420p overlay w:1280 h:720 fmt:yuva420p
[Parsed_overlay_4 @ 0x5589499fd440] [framesync @ 0x5589499fd5a8] Selected 1/600 time base
[Parsed_overlay_4 @ 0x5589499fd440] [framesync @ 0x5589499fd5a8] Sync level 2
[libx264 @ 0x5589499e1500] using SAR=1/1
[libx264 @ 0x5589499e1500] using cpu capabilities: MMX2 SSE2Fast SSSE3 SSE4.2 AVX FMA3 BMI2 AVX2
[libx264 @ 0x5589499e1500] profile High, level 3.1
[libx264 @ 0x5589499e1500] 264 - core 155 r2917 0a84d98 - H.264/MPEG-4 AVC codec - Copyleft 2003-2018 - http://www.videolan.org/x264.html - options: cabac=1 ref=1 deblock=1:0:0 analyse=0x3:0x113 me=hex subme=2 psy=1 psy_rd=1.00:0.00 mixed_ref=0 me_range=16 chroma_me=1 trellis=0 8x8dct=1 cqm=0 deadzone=21,11 fast_pskip=1 chroma_qp_offset=0 threads=22 lookahead_threads=5 sliced_threads=0 nr=0 decimate=1 interlaced=0 bluray_compat=0 constrained_intra=0 bframes=3 b_pyramid=2 b_adapt=1 b_bias=0 direct=1 weightb=1 open_gop=0 weightp=1 keyint=250 keyint_min=25 scenecut=40 intra_refresh=0 rc_lookahead=10 rc=crf mbtree=1 crf=18.0 qcomp=0.60 qpmin=0 qpmax=69 qpstep=4 ip_ratio=1.40 aq=1:1.00
Output #0, mp4, to '/var/www/html/project/media/video/watermarks/IMG_5494.mp4':
  Metadata:
    major_brand     : qt  
    minor_version   : 0
    compatible_brands: qt  
    com.apple.quicktime.is-montage: iMovie
    com.apple.quicktime.artwork: ˙Ř˙ŕ
    encoder         : Lavf58.29.100
    Stream #0:0: Video: h264 (libx264), 1 reference frame (avc1 / 0x31637661), yuv420p, 1280x720 [SAR 1:1 DAR 16:9], q=-1--1, 30 fps, 15360 tbn, 30 tbc (default)
    Metadata:
      encoder         : Lavc58.54.100 libx264
    Side data:
      cpb: bitrate max/min/avg: 0/0/0 buffer size: 0 vbv_delay: -1
    Stream #0:1(und): Audio: aac (LC) (mp4a / 0x6134706D), 44100 Hz, stereo, fltp, delay 1024, 128 kb/s (default)
    Metadata:
      creation_time   : 2022-07-05T12:40:52.000000Z
      handler_name    : Core Media Audio
      encoder         : Lavc58.54.100 aac
[Parsed_overlay_4 @ 0x5589499fd440] [framesync @ 0x5589499fd5a8] Sync level 0
No more output streams to write to, finishing.
frame=  815 fps=194 q=-1.0 Lsize=   11209kB time=00:00:27.19 bitrate=3377.1kbits/s speed=6.48x    
[AVIOContext @ 0x55894998a0c0] Statistics: 0 seeks, 9 writeouts
video:10762kB audio:417kB subtitle:0kB other streams:0kB global headers:0kB muxing overhead: 0.266827%
Input file #0 (/var/www/html/project/media/video/original/IMG_5494.MOV):
  Input stream #0:0 (audio): 1173 packets read (619697 bytes); 1171 frames decoded (1199040 samples); 
  Input stream #0:1 (video): 815 packets read (32454934 bytes); 815 frames decoded; 
  Total: 1988 packets (33074631 bytes) demuxed
Input file #1 (/var/www/html/project/static/images/templates/logo.png):
  Input stream #1:0 (video): 1 packets read (111578 bytes); 1 frames decoded; 
  Total: 1 packets (111578 bytes) demuxed
Output file #0 (/var/www/html/project/media/video/watermarks/IMG_5494.mp4):
  Output stream #0:0 (video): 815 frames encoded; 815 packets muxed (11020116 bytes); 
  Output stream #0:1 (audio): 1171 frames encoded (1199040 samples); 1172 packets muxed (427388 bytes); 
  Total: 1987 packets (11447504 bytes) muxed
[AVIOContext @ 0x5589499df540] Statistics: 2 seeks, 47 writeouts
[libx264 @ 0x5589499e1500] frame I:5     Avg QP:16.71  size: 84144
[libx264 @ 0x5589499e1500] frame P:343   Avg QP:18.14  size: 23108
[libx264 @ 0x5589499e1500] frame B:467   Avg QP:20.48  size:  5723
[libx264 @ 0x5589499e1500] consecutive B-frames:  3.2% 56.9% 12.9% 27.0%
[libx264 @ 0x5589499e1500] mb I  I16..4: 11.2% 14.6% 74.2%
[libx264 @ 0x5589499e1500] mb P  I16..4:  8.8%  9.8%  5.2%  P16..4: 26.7% 20.4% 11.5%  0.0%  0.0%    skip:17.5%
[libx264 @ 0x5589499e1500] mb B  I16..4:  2.5%  1.6%  0.2%  B16..8: 19.9%  9.0%  0.9%  direct: 9.3%  skip:56.6%  L0:38.1% L1:49.2% BI:12.7%
[libx264 @ 0x5589499e1500] 8x8 transform intra:39.1% inter:37.0%
[libx264 @ 0x5589499e1500] coded y,uvDC,uvAC intra: 49.6% 48.0% 8.8% inter: 15.4% 11.0% 0.3%
[libx264 @ 0x5589499e1500] i16 v,h,dc,p: 33% 48% 14%  5%
[libx264 @ 0x5589499e1500] i8 v,h,dc,ddl,ddr,vr,hd,vl,hu: 13% 48% 22%  3%  2%  2%  5%  2%  4%
[libx264 @ 0x5589499e1500] i4 v,h,dc,ddl,ddr,vr,hd,vl,hu: 18% 36% 15%  5%  6%  4%  8%  3%  6%
[libx264 @ 0x5589499e1500] i8c dc,h,v,p: 48% 34% 13%  6%
[libx264 @ 0x5589499e1500] Weighted P-Frames: Y:0.6% UV:0.0%
[libx264 @ 0x5589499e1500] kb/s:3244.98
[aac @ 0x5589499acfc0] Qavg: 2802.983
[AVIOContext @ 0x558949993000] Statistics: 64716136 bytes read, 1589 seeks
[AVIOContext @ 0x558949992ec0] Statistics: 111578 bytes read, 0 seeks
